<?xml version="1.0" encoding="UTF-8" standalone="no"?>
<svg
   viewBox="0 0 640 512"
   version="1.1"
   id="svg12"
   sodipodi:docname="mail_pic.svg"
   inkscape:version="1.2.2 (732a01da63, 2022-12-09)"
   xmlns:inkscape="http://www.inkscape.org/namespaces/inkscape"
   xmlns:sodipodi="http://sodipodi.sourceforge.net/DTD/sodipodi-0.dtd"
   xmlns="http://www.w3.org/2000/svg"
   xmlns:svg="http://www.w3.org/2000/svg">
  <defs
     id="defs16" />
  <sodipodi:namedview
     id="namedview14"
     pagecolor="#ffffff"
     bordercolor="#000000"
     borderopacity="0.25"
     inkscape:showpageshadow="2"
     inkscape:pageopacity="0.0"
     inkscape:pagecheckerboard="0"
     inkscape:deskcolor="#d1d1d1"
     showgrid="false"
     inkscape:zoom="1.515625"
     inkscape:cx="320"
     inkscape:cy="411.05155"
     inkscape:window-width="1920"
     inkscape:window-height="974"
     inkscape:window-x="-11"
     inkscape:window-y="-11"
     inkscape:window-maximized="1"
     inkscape:current-layer="svg12" />
  <!--! Font Awesome Pro 6.4.0 by @fontawesome - https://fontawesome.com License - https://fontawesome.com/license (Commercial License) Copyright 2023 Fonticons, Inc. -->
  <path
     d="M128 0C110.3 0 96 14.3 96 32V224h96V192c0-35.3 28.7-64 64-64H480V32c0-17.7-14.3-32-32-32H128zM256 160c-17.7 0-32 14.3-32 32v32h96c35.3 0 64 28.7 64 64V416H576c17.7 0 32-14.3 32-32V192c0-17.7-14.3-32-32-32H256zm240 64h32c8.8 0 16 7.2 16 16v32c0 8.8-7.2 16-16 16H496c-8.8 0-16-7.2-16-16V240c0-8.8 7.2-16 16-16zM64 256c-17.7 0-32 14.3-32 32v13L187.1 415.9c1.4 1 3.1 1.6 4.9 1.6s3.5-.6 4.9-1.6L352 301V288c0-17.7-14.3-32-32-32H64zm288 84.8L216 441.6c-6.9 5.1-15.3 7.9-24 7.9s-17-2.8-24-7.9L32 340.8V480c0 17.7 14.3 32 32 32H320c17.7 0 32-14.3 32-32V340.8z"
     id="path10"
     style="fill:#FFB757; fill-opacity:1" />
</svg>
