<?xml version="1.0" encoding="UTF-8" standalone="no"?>
<svg
   viewBox="0 0 512 512"
   version="1.1"
   id="svg12"
   sodipodi:docname="paper_pic.svg"
   inkscape:version="1.2.2 (732a01da63, 2022-12-09)"
   xmlns:inkscape="http://www.inkscape.org/namespaces/inkscape"
   xmlns:sodipodi="http://sodipodi.sourceforge.net/DTD/sodipodi-0.dtd"
   xmlns="http://www.w3.org/2000/svg"
   xmlns:svg="http://www.w3.org/2000/svg">
  <defs
     id="defs16" />
  <sodipodi:namedview
     id="namedview14"
     pagecolor="#FFE4E0"
     bordercolor="#FFE4E0"
     borderopacity="0.25"
     inkscape:showpageshadow="2"
     inkscape:pageopacity="0.0"
     inkscape:pagecheckerboard="0"
     inkscape:deskcolor="#FFE4E0"
     showgrid="false"
     inkscape:zoom="1.0717087"
     inkscape:cx="-43.855201"
     inkscape:cy="299.52169"
     inkscape:window-width="1920"
     inkscape:window-height="974"
     inkscape:window-x="-11"
     inkscape:window-y="-11"
     inkscape:window-maximized="1"
     inkscape:current-layer="svg12" />
  <!--! Font Awesome Pro 6.4.0 by @fontawesome - https://fontawesome.com License - https://fontawesome.com/license (Commercial License) Copyright 2023 Fonticons, Inc. -->
  <path
     style="fill:#FFE4E0;fill-opacity:1;stroke:#FFE4E0;stroke-width:0.1;stroke-dasharray:none;stroke-opacity:1"
     d="M 73.316476,509.13504 C 39.675416,506.35923 11.748196,482.68009 2.6932671,449.25449 l -2.08312999,-7.68969 -0.19783,-142.84536 c -0.14543,-105.00598 0.002,-143.88674 0.55508,-146.77661 1.85151999,-9.66736 8.44956009,-18.13703 17.56757889,-22.55085 4.73373,-2.29149 5.73142,-2.52364 11.87395,-2.76294 5.61374,-0.2187 7.41552,-0.0251 11.06225,1.18842 8.16002,2.71548 15.2956,8.81306 18.77832,16.04667 3.55399,7.38161 3.37096,-0.74276 3.37096,149.63263 0,151.48435 -0.24694,141.60836 3.66919,146.74267 0.95751,1.25536 3.33984,3.06475 5.29407,4.02087 3.08668,1.51016 4.19861,1.70579 8.46985,1.4901 4.17558,-0.21086 5.3429,-0.54781 7.744,-2.23537 1.555,-1.09289 3.72629,-3.26614 4.82508,-4.82944 l 1.997808,-2.84236 0.36971,-159.11859 c 0.3357,-144.48119 0.4692,-159.51313 1.45116,-163.40727 6.654946,-26.391118 23.569056,-43.305818 49.972956,-49.974688 3.89789,-0.98449 17.57471,-1.1049 150.10309,-1.32146 96.70668,-0.15803 148.59202,-0.009 154.06186,0.44377 13.14088,1.08673 22.61519,4.36384 32.62846,11.286 5.22389,3.61127 12.62641,10.95507 16.03176,15.90457 5.1325,7.45983 9.21151,17.752288 10.68486,26.960778 0.95459,5.9662 0.95459,332.50803 0,338.47423 -1.47335,9.20849 -5.55236,19.50094 -10.68486,26.96077 -3.40535,4.9495 -10.80787,12.2933 -16.03176,15.90457 -9.70764,6.71089 -19.3838,10.1484 -31.63877,11.23987 -8.83574,0.78693 -369.679504,0.72915 -379.252434,-0.0607 z M 439.51967,444.17172 c 11.62757,-5.79426 11.54234,-22.58672 -0.14664,-28.89415 l -2.63917,-1.42411 -131.62706,-0.17139 c -113.19903,-0.14738 -132.01774,-0.0383 -134.41765,0.77948 -6.75173,2.30054 -10.7388,8.00993 -10.7388,15.3777 0,2.29917 0.40822,5.15731 0.90715,6.35143 1.33077,3.18497 4.66852,6.70628 7.84893,8.28055 l 2.79031,1.38119 132.32407,5.2e-4 132.32405,5.2e-4 z m -0.14664,-95.74237 c 11.7169,-6.32248 11.76509,-23.19918 0.0826,-28.91491 l -3.41453,-1.67057 -133.04012,0.16974 -133.04012,0.16975 -2.84249,1.99781 c -1.56336,1.09879 -3.73667,3.27008 -4.82956,4.82508 -1.68756,2.4011 -2.02451,3.56842 -2.23537,7.744 -0.21569,4.27124 -0.0201,5.38317 1.4901,8.46985 1.8663,3.81456 4.83922,6.50538 8.8009,7.96577 2.07621,0.76536 23.59573,0.89172 134.43068,0.78941 l 131.95874,-0.12182 z M 304.69162,252.50844 c 6.8811,-2.57456 12.04993,-8.02904 14.26595,-15.05438 1.26782,-4.01927 1.32268,-5.99376 1.32268,-47.6006 0,-41.60684 -0.0548,-43.58133 -1.32268,-47.6006 -2.22028,-7.03884 -7.38423,-12.4796 -14.30082,-15.06743 -3.58268,-1.34045 -4.43601,-1.35577 -65.75572,-1.18008 l -62.12594,0.178 -3.29897,1.62401 c -1.81443,0.89321 -4.79496,3.12001 -6.62341,4.94845 -1.82844,1.82845 -4.05524,4.80898 -4.94845,6.62341 l -1.62401,3.29898 -0.18251,45.83014 c -0.20293,50.95924 -0.32056,49.40595 4.21424,55.65025 2.69647,3.71297 6.98098,6.9294 11.33963,8.51279 2.84046,1.03187 8.27602,1.12952 64.27399,1.15464 59.9761,0.0269 61.24136,0.001 64.76602,-1.31758 z m 134.82805,-0.33672 c 11.62757,-5.79426 11.54234,-22.58672 -0.14664,-28.89415 -2.56707,-1.3852 -3.40018,-1.42935 -30.49554,-1.61597 -27.37627,-0.18856 -27.91398,-0.16707 -31.20011,1.24658 -3.92142,1.68695 -8.25318,6.26782 -9.22069,9.75094 -2.20538,7.9396 1.00433,15.99315 7.78016,19.52135 l 3.09494,1.61155 28.40654,0.0308 28.40653,0.0307 3.37481,-1.68173 z m -0.14664,-95.74237 c 11.68898,-6.30743 11.77421,-23.0999 0.14664,-28.89416 l -3.37481,-1.68174 h -28.24877 c -27.37697,0 -28.34032,0.043 -31.21478,1.39419 -6.95278,3.26819 -10.4714,11.71208 -8.23506,19.76234 0.94298,3.39453 5.01222,7.80883 8.86947,9.62161 l 3.33566,1.56764 28.04124,-0.17288 c 27.30362,-0.16834 28.11066,-0.21035 30.68041,-1.597 z"
     id="path361" />
</svg>
